<mxfile host="app.diagrams.net" modified="2024-04-28T16:36:25.900Z" agent="Mozilla/5.0 (Windows NT 10.0; Win64; x64) AppleWebKit/537.36 (KHTML, like Gecko) Chrome/124.0.0.0 Safari/537.36" version="24.3.0" etag="dH58qPavVXF3CbRYzjl-" type="github">
  <diagram name="PÃ¡gina-1" id="0AHSmJWt4UF88Xj78bRO">
    <mxGraphModel>
      <root>
        <mxCell id="0" />
        <mxCell id="1" parent="0" />
      </root>
    </mxGraphModel>
  </diagram>
</mxfile>
